<?xml version="1.0" encoding="UTF-8"?>
<svg width="20px" height="20px" viewBox="0 0 20 20" version="1.1" xmlns="http://www.w3.org/2000/svg" xmlns:xlink="http://www.w3.org/1999/xlink">
    <title>B95267B9-445E-4158-8E6C-71F7498C50D8</title>
    <defs>
        <filter color-interpolation-filters="auto" id="filter-1">
            <feColorMatrix in="SourceGraphic" type="matrix" values="0 0 0 0 0.219608 0 0 0 0 0.231373 0 0 0 0 0.254902 0 0 0 1.000000 0"></feColorMatrix>
        </filter>
        <filter color-interpolation-filters="auto" id="filter-2">
            <feColorMatrix in="SourceGraphic" type="matrix" values="0 0 0 0 0.219608 0 0 0 0 0.231373 0 0 0 0 0.254902 0 0 0 1.000000 0"></feColorMatrix>
        </filter>
    </defs>
    <g id="Candidate---Fairs" stroke="none" stroke-width="1" fill="none" fill-rule="evenodd">
        <g transform="translate(-360.000000, -754.000000)">
            <rect fill="#FFFFFF" x="0" y="0" width="1580" height="2475"></rect>
            <g id="Fairs-Listing" transform="translate(115.000000, 608.000000)">
                <g transform="translate(0.000000, 50.000000)" id="Content">
                    <g filter="url(#filter-1)" id="Background" opacity="0.047828311">
                        <g>
                            <rect fill="#383B41" x="0" y="0" width="460" height="128" rx="5"></rect>
                        </g>
                    </g>
                    <g id="Users---Schools" transform="translate(94.000000, 94.000000)" opacity="0.4">
                        <g id="School" transform="translate(151.000000, 0.000000)">
                            <g id="Schools" transform="translate(0.000000, 2.000000)" filter="url(#filter-2)">
                                <g transform="translate(2.500000, 2.500000)">
                                    <path d="M9.44703571,1.61175 L9.00753571,1.03478571 L9.44703571,0.457892857 C9.5425,0.332714286 9.51842857,0.153857143 9.39325,0.0583928571 C9.34339286,0.0203928571 9.28242857,-0.000142857143 9.21975,-4.68168611e-06 L6.96975,-4.68168611e-06 C6.81110714,-0.000892857143 6.68125,0.126035714 6.67857143,0.284678571 L6.67857143,2.82142857 L7.25,2.82142857 L7.25,2.07142857 L9.21975,2.07142857 C9.37789286,2.07107143 9.50582143,1.94257143 9.50546503,1.78442857 C9.50532143,1.72203571 9.48478571,1.66139286 9.44703571,1.61175 Z" id="Path" fill="#C1C7D0" fill-rule="nonzero"></path>
                                    <path d="M0.423642857,8.99999414 C0.190892857,8.99878571 0.00121428571,9.18646429 0,9.41917857 C0,9.42103571 0,9.42289286 0,9.42475 L0,14.9999941 L3.60714286,14.9999941 L3.60714286,8.99999414 L0.423642857,8.99999414 Z M1.35714286,13.4285714 C1.35714286,13.5863571 1.22921429,13.7142857 1.07142857,13.7142857 C0.913642857,13.7142857 0.785714286,13.5863571 0.785714286,13.4285714 L0.785714286,12.8146071 C0.785714286,12.6568214 0.913642857,12.5288929 1.07142857,12.5288929 C1.22921429,12.5288929 1.35714286,12.6568214 1.35714286,12.8146071 L1.35714286,13.4285714 Z M1.35714286,11.0372143 C1.35714286,11.195 1.22921429,11.3229286 1.07142857,11.3229286 C0.913642857,11.3229286 0.785714286,11.195 0.785714286,11.0372143 L0.785714286,10.4232143 C0.785714286,10.2654286 0.913642857,10.1375 1.07142857,10.1375 C1.22921429,10.1375 1.35714286,10.2654286 1.35714286,10.4232143 L1.35714286,11.0372143 Z M2.82142857,13.4285714 C2.82142857,13.5863571 2.6935,13.7142857 2.53571429,13.7142857 C2.37792857,13.7142857 2.25,13.5863571 2.25,13.4285714 L2.25,12.8146071 C2.25,12.6568214 2.37792857,12.5288929 2.53571429,12.5288929 C2.6935,12.5288929 2.82142857,12.6568214 2.82142857,12.8146071 L2.82142857,13.4285714 Z M2.82142857,11.0372143 C2.82142857,11.195 2.6935,11.3229286 2.53571429,11.3229286 C2.37792857,11.3229286 2.25,11.195 2.25,11.0372143 L2.25,10.4232143 C2.25,10.2654286 2.37792857,10.1375 2.53571429,10.1375 C2.6935,10.1375 2.82142857,10.2654286 2.82142857,10.4232143 L2.82142857,11.0372143 Z" id="Shape" fill="#C1C7D0" fill-rule="nonzero"></path>
                                    <path d="M6.91835714,5.01785714 L4.17857143,7.34835714 L4.17857143,15 L5.42857143,15 L5.42857143,12.0246071 C5.42478571,11.8767143 5.54160714,11.7537857 5.6895,11.7499643 C5.69432143,11.7498571 5.69914286,11.7498571 5.70396429,11.75 L8.15996429,11.75 C8.30478571,11.7463571 8.42514286,11.8607857 8.42878571,12.0055714 C8.42892857,12.0119286 8.42889286,12.01825 8.42857143,12.0246071 L8.42857143,15 L9.64285714,15 L9.64285714,7.34571429 L6.91835714,5.01785714 Z M8.15996429,10.1428571 L5.68782143,10.1428571 C5.53003571,10.1428571 5.40210714,10.0149286 5.40210714,9.85714286 C5.40210714,9.69935714 5.53003571,9.57142857 5.68782143,9.57142857 L8.15996429,9.57142857 C8.31775,9.57142857 8.44567857,9.69935714 8.44567857,9.85714286 C8.44567857,10.0149286 8.31775,10.1428571 8.15996429,10.1428571 Z" id="Shape" fill="#C1C7D0" fill-rule="nonzero"></path>
                                    <path d="M13.5105,9 C13.5086429,9 13.5067857,9 13.5049286,9 L10.2142857,9 L10.2142857,15 L13.9285851,15 L13.9285851,9.42475 C13.9304286,9.192 13.7432143,9.00185714 13.5105,9 Z M11.6785714,13.4285714 C11.6785714,13.5863571 11.5506429,13.7142857 11.3928571,13.7142857 C11.2350714,13.7142857 11.1071429,13.5863571 11.1071429,13.4285714 L11.1071429,12.8146071 C11.1071429,12.6568214 11.2350714,12.5288929 11.3928571,12.5288929 C11.5506429,12.5288929 11.6785714,12.6568214 11.6785714,12.8146071 L11.6785714,13.4285714 Z M11.6785714,11.0372143 C11.6785714,11.195 11.5506429,11.3229286 11.3928571,11.3229286 C11.2350714,11.3229286 11.1071429,11.195 11.1071429,11.0372143 L11.1071429,10.4232143 C11.1071429,10.2654286 11.2350714,10.1375 11.3928571,10.1375 C11.5506429,10.1375 11.6785714,10.2654286 11.6785714,10.4232143 L11.6785714,11.0372143 Z M13.1071429,13.4285714 C13.1071429,13.5863571 12.9792143,13.7142857 12.8214286,13.7142857 C12.6636429,13.7142857 12.5357143,13.5863571 12.5357143,13.4285714 L12.5357143,12.8146071 C12.5357143,12.6568214 12.6636429,12.5288929 12.8214286,12.5288929 C12.9792143,12.5288929 13.1071429,12.6568214 13.1071429,12.8146071 L13.1071429,13.4285714 Z M13.1071429,11.0372143 C13.1071429,11.195 12.9792143,11.3229286 12.8214286,11.3229286 C12.6636429,11.3229286 12.5357143,11.195 12.5357143,11.0372143 L12.5357143,10.4232143 C12.5357143,10.2654286 12.6636429,10.1375 12.8214286,10.1375 C12.9792143,10.1375 13.1071429,10.2654286 13.1071429,10.4232143 L13.1071429,11.0372143 Z" id="Shape" fill="#C1C7D0" fill-rule="nonzero"></path>
                                    <path d="M6.93214286,3.20842857 L2.84346429,6.70878571 L3.36017857,7.31003571 L6.74664286,4.4245 C6.85360714,4.33335714 7.01096429,4.3335 7.11775,4.42489286 L10.4901429,7.31121429 L11.0187143,6.70714286 L6.93214286,3.20842857 Z" id="Path" fill="#C1C7D0" fill-rule="nonzero"></path>
                                    <rect id="Rectangle" fill="#C1C7D0" fill-rule="nonzero" x="6" y="12.3214286" width="1.85714286" height="2.67857143"></rect>
                                </g>
                            </g>
                        </g>
                    </g>
                </g>
            </g>
        </g>
    </g>
</svg>